<?xml version="1.0" encoding="UTF-8" standalone="no"?>
<!-- Created with Inkscape (http://www.inkscape.org/) -->

<svg
   xmlns:dc="http://purl.org/dc/elements/1.1/"
   xmlns:cc="http://creativecommons.org/ns#"
   xmlns:rdf="http://www.w3.org/1999/02/22-rdf-syntax-ns#"
   xmlns:svg="http://www.w3.org/2000/svg"
   xmlns="http://www.w3.org/2000/svg"
   xmlns:sodipodi="http://sodipodi.sourceforge.net/DTD/sodipodi-0.dtd"
   xmlns:inkscape="http://www.inkscape.org/namespaces/inkscape"
   width="200mm"
   height="200mm"
   viewBox="0 0 200 200"
   version="1.1"
   id="svg6267"
   inkscape:version="0.92.4 (5da689c313, 2019-01-14)"
   sodipodi:docname="Peach.svg"
   inkscape:export-filename="C:\Users\Kitaro\Desktop\app\taro.png"
   inkscape:export-xdpi="96"
   inkscape:export-ydpi="96">
  <defs
     id="defs6261" />
  <sodipodi:namedview
     id="base"
     pagecolor="#ffffff"
     bordercolor="#666666"
     borderopacity="1.0"
     inkscape:pageopacity="0"
     inkscape:pageshadow="2"
     inkscape:zoom="0.96903646"
     inkscape:cx="377.95276"
     inkscape:cy="354.32407"
     inkscape:document-units="mm"
     inkscape:current-layer="layer4"
     showgrid="false"
     showguides="false"
     inkscape:window-width="1920"
     inkscape:window-height="1027"
     inkscape:window-x="-8"
     inkscape:window-y="22"
     inkscape:window-maximized="1"
     inkscape:pagecheckerboard="true">
    <inkscape:grid
       type="xygrid"
       id="grid6291" />
  </sodipodi:namedview>
  <metadata
     id="metadata6264">
    <rdf:RDF>
      <cc:Work
         rdf:about="">
        <dc:format>image/svg+xml</dc:format>
        <dc:type
           rdf:resource="http://purl.org/dc/dcmitype/StillImage" />
        <dc:title></dc:title>
      </cc:Work>
    </rdf:RDF>
  </metadata>
  <g
     inkscape:groupmode="layer"
     id="layer4"
     inkscape:label="Close"
     style="display:inline"
     transform="translate(0,-97)">
    <ellipse
       style="fill:#ff8080;fill-opacity:1;stroke-width:0.22691372"
       id="circle6175"
       cx="107.14261"
       cy="204.1796"
       rx="42.450722"
       ry="43.316315" />
    <path
       style="display:inline;fill:#ff8080;fill-opacity:1;stroke-width:0.22691372"
       d="m 98.890125,161.26526 a 42.45072,43.316315 0 0 0 -5.441529,-0.40205 42.45072,43.316315 0 0 0 -42.450639,43.31623 42.45072,43.316315 0 0 0 42.450639,43.31621 42.45072,43.316315 0 0 0 5.834784,-0.45888 42.45072,43.316315 0 0 1 -2.991548,-0.46147 42.45072,43.316315 0 0 1 -4.111376,-1.07126 42.45072,43.316315 0 0 1 -3.986321,-1.48466 42.45072,43.316315 0 0 1 -3.820438,-1.88361 42.45072,43.316315 0 0 1 -3.617867,-2.26291 42.45072,43.316315 0 0 1 -3.378087,-2.62051 42.45072,43.316315 0 0 1 -3.104721,-2.95124 42.45072,43.316315 0 0 1 -2.800345,-3.25303 42.45072,43.316315 0 0 1 -2.468067,-3.52175 42.45072,43.316315 0 0 1 -2.1115,-3.75584 42.45072,43.316315 0 0 1 -1.733227,-3.95222 42.45072,43.316315 0 0 1 -1.337903,-4.10879 42.45072,43.316315 0 0 1 -0.929658,-4.22507 42.45072,43.316315 0 0 1 -0.51108,-4.29792 42.45072,43.316315 0 0 1 -0.106455,-3.06442 42.45072,43.316315 0 0 1 0.211873,-4.32428 42.45072,43.316315 0 0 1 0.634071,-4.28139 42.45072,43.316315 0 0 1 1.050066,-4.1951 42.45072,43.316315 0 0 1 1.455208,-4.06745 42.45072,43.316315 0 0 1 1.845365,-3.89847 42.45072,43.316315 0 0 1 2.217952,-3.69124 42.45072,43.316315 0 0 1 2.567803,-3.44682 42.45072,43.316315 0 0 1 2.892845,-3.16828 42.45072,43.316315 0 0 1 3.18792,-2.85771 42.45072,43.316315 0 0 1 3.451468,-2.51871 42.45072,43.316315 0 0 1 3.680397,-2.15439 42.45072,43.316315 0 0 1 3.873148,-1.76837 42.45072,43.316315 0 0 1 4.027143,-1.36529 42.45072,43.316315 0 0 1 4.140317,-0.94826 42.45072,43.316315 0 0 1 1.379762,-0.17105 z"
       id="path61"
       inkscape:connector-curvature="0" />
    <path
       inkscape:connector-curvature="0"
       id="path6238"
       d="m 98.697372,158.56572 c -1.67759,-0.95044 -3.53213,-3.43174 -4.07115,-5.44706 -0.887118,-3.31669 0.43374,-7.5872 3.32483,-10.74963 7.209308,-7.88597 18.828948,-12.35525 35.828548,-13.7808 0.93845,-0.0787 -4.23085,9.78578 -8.05725,15.37552 -8.94168,13.0623 -19.58869,18.81501 -27.024978,14.60197 z"
       style="display:inline;fill:#89a02c;fill-opacity:1;stroke-width:0.31441328" />
    <path
       style="display:inline;fill:#abc837;fill-opacity:1;stroke-width:0.31441328"
       d="m 106.5596,159.7118 c 1.83857,-0.56041 4.17231,-2.57712 5.12314,-4.42717 1.56485,-3.0447 1.17416,-7.50507 -0.98344,-11.22753 -5.38022,-9.28249 -15.787258,-16.19511 -32.089554,-21.31472 -0.899962,-0.28264 2.071268,10.48485 4.631164,16.783 5.982063,14.71773 15.168912,22.67055 23.31869,20.18642 z"
       id="path6240"
       inkscape:connector-curvature="0" />
  </g>
  <g
     inkscape:label="Layer 1"
     inkscape:groupmode="layer"
     id="layer1"
     style="display:inline"
     transform="translate(0,-97)" />
  <g
     inkscape:groupmode="layer"
     id="layer5"
     inkscape:label="Layer 2"
     style="display:inline"
     transform="translate(0,-97)" />
  <g
     inkscape:groupmode="layer"
     id="layer3"
     inkscape:label="Transparent"
     style="display:inline"
     transform="translate(0,-97)" />
</svg>
